<mxfile host="app.diagrams.net" modified="2020-09-30T19:42:08.109Z" agent="5.0 (X11; Linux x86_64) AppleWebKit/537.36 (KHTML, like Gecko) Chrome/85.0.4183.102 Safari/537.36" etag="PgqtF4MCzIPw5zVYPby5" version="13.7.7" type="github">
  <diagram id="lXPboITa1y0xZl0imtIT" name="Page-1">
    <mxGraphModel dx="2031" dy="1077" grid="1" gridSize="10" guides="1" tooltips="1" connect="1" arrows="1" fold="1" page="1" pageScale="1" pageWidth="827" pageHeight="1169" math="0" shadow="0">
      <root>
        <mxCell id="0" />
        <mxCell id="1" parent="0" />
        <mxCell id="PC23kkCjxWs9p2A2zOyh-5" value="" style="rounded=1;whiteSpace=wrap;html=1;arcSize=2;fontColor=#333333;dashed=1;strokeWidth=4;strokeColor=#00CCCC;" vertex="1" parent="1">
          <mxGeometry x="40" y="300" width="880" height="940" as="geometry" />
        </mxCell>
        <mxCell id="PC23kkCjxWs9p2A2zOyh-6" value="" style="rounded=1;whiteSpace=wrap;html=1;arcSize=10;shadow=1;strokeColor=none;fillColor=#FF9999;" vertex="1" parent="1">
          <mxGeometry x="70" y="355" width="810" height="230" as="geometry" />
        </mxCell>
        <mxCell id="PC23kkCjxWs9p2A2zOyh-32" style="edgeStyle=orthogonalEdgeStyle;rounded=1;orthogonalLoop=1;jettySize=auto;html=1;entryX=0.513;entryY=0;entryDx=0;entryDy=0;entryPerimeter=0;" edge="1" parent="1" source="PC23kkCjxWs9p2A2zOyh-2" target="PC23kkCjxWs9p2A2zOyh-3">
          <mxGeometry relative="1" as="geometry" />
        </mxCell>
        <mxCell id="PC23kkCjxWs9p2A2zOyh-2" value="" style="verticalLabelPosition=bottom;html=1;verticalAlign=top;align=center;strokeColor=none;fillColor=#00BEF2;shape=mxgraph.azure.user;" vertex="1" parent="1">
          <mxGeometry x="440" y="90" width="80" height="80" as="geometry" />
        </mxCell>
        <mxCell id="PC23kkCjxWs9p2A2zOyh-3" value="" style="outlineConnect=0;fontColor=#232F3E;gradientColor=#F54749;gradientDirection=north;fillColor=#C7131F;strokeColor=#ffffff;dashed=0;verticalLabelPosition=bottom;verticalAlign=top;align=center;html=1;fontSize=12;fontStyle=0;aspect=fixed;shape=mxgraph.aws4.resourceIcon;resIcon=mxgraph.aws4.firewall_manager;" vertex="1" parent="1">
          <mxGeometry x="440" y="410" width="78" height="78" as="geometry" />
        </mxCell>
        <mxCell id="PC23kkCjxWs9p2A2zOyh-4" value="" style="fillColor=#28A8E0;verticalLabelPosition=bottom;html=1;strokeColor=#ffffff;verticalAlign=top;align=center;points=[[0.145,0.145,0],[0.5,0,0],[0.855,0.145,0],[1,0.5,0],[0.855,0.855,0],[0.5,1,0],[0.145,0.855,0],[0,0.5,0]];pointerEvents=1;shape=mxgraph.cisco_safe.compositeIcon;bgIcon=ellipse;resIcon=mxgraph.cisco_safe.capability.dns;" vertex="1" parent="1">
          <mxGeometry x="715" y="160" width="80" height="80" as="geometry" />
        </mxCell>
        <mxCell id="PC23kkCjxWs9p2A2zOyh-8" value="" style="rounded=1;whiteSpace=wrap;html=1;arcSize=5;fillColor=#87E0E0;shadow=1;strokeColor=none;" vertex="1" parent="1">
          <mxGeometry x="70" y="769" width="810" height="431" as="geometry" />
        </mxCell>
        <mxCell id="PC23kkCjxWs9p2A2zOyh-23" style="edgeStyle=orthogonalEdgeStyle;rounded=1;orthogonalLoop=1;jettySize=auto;html=1;entryX=0.5;entryY=0;entryDx=0;entryDy=0;" edge="1" parent="1" source="PC23kkCjxWs9p2A2zOyh-13">
          <mxGeometry relative="1" as="geometry">
            <mxPoint x="755" y="768.9999999999998" as="targetPoint" />
            <Array as="points">
              <mxPoint x="755" y="665" />
            </Array>
          </mxGeometry>
        </mxCell>
        <mxCell id="PC23kkCjxWs9p2A2zOyh-24" style="edgeStyle=orthogonalEdgeStyle;rounded=1;orthogonalLoop=1;jettySize=auto;html=1;" edge="1" parent="1" source="PC23kkCjxWs9p2A2zOyh-13" target="PC23kkCjxWs9p2A2zOyh-8">
          <mxGeometry relative="1" as="geometry">
            <Array as="points">
              <mxPoint x="315" y="665" />
            </Array>
          </mxGeometry>
        </mxCell>
        <mxCell id="PC23kkCjxWs9p2A2zOyh-25" style="edgeStyle=orthogonalEdgeStyle;rounded=1;orthogonalLoop=1;jettySize=auto;html=1;exitX=0.5;exitY=1;exitDx=0;exitDy=0;exitPerimeter=0;entryX=0.682;entryY=0.885;entryDx=0;entryDy=0;entryPerimeter=0;" edge="1" parent="1" source="PC23kkCjxWs9p2A2zOyh-13" target="PC23kkCjxWs9p2A2zOyh-5">
          <mxGeometry relative="1" as="geometry">
            <Array as="points">
              <mxPoint x="605" y="1120" />
            </Array>
          </mxGeometry>
        </mxCell>
        <mxCell id="PC23kkCjxWs9p2A2zOyh-26" value="" style="edgeStyle=orthogonalEdgeStyle;rounded=1;orthogonalLoop=1;jettySize=auto;html=1;entryX=0.75;entryY=1;entryDx=0;entryDy=0;" edge="1" parent="1" source="PC23kkCjxWs9p2A2zOyh-13" target="PC23kkCjxWs9p2A2zOyh-6">
          <mxGeometry relative="1" as="geometry" />
        </mxCell>
        <mxCell id="PC23kkCjxWs9p2A2zOyh-13" value="" style="points=[[0.015,0.015,0],[0.985,0.015,0],[0.985,0.985,0],[0.015,0.985,0],[0.25,0,0],[0.5,0,0],[0.75,0,0],[1,0.25,0],[1,0.5,0],[1,0.75,0],[0.75,1,0],[0.5,1,0],[0.25,1,0],[0,0.75,0],[0,0.5,0],[0,0.25,0]];verticalLabelPosition=bottom;html=1;verticalAlign=top;aspect=fixed;align=center;pointerEvents=1;shape=mxgraph.cisco19.rect;prIcon=l3_switch;fillColor=#FAFAFA;strokeColor=#005073;" vertex="1" parent="1">
          <mxGeometry x="560" y="620" width="90" height="90" as="geometry" />
        </mxCell>
        <mxCell id="PC23kkCjxWs9p2A2zOyh-15" value="" style="shape=image;html=1;verticalAlign=top;verticalLabelPosition=bottom;labelBackgroundColor=#ffffff;imageAspect=0;aspect=fixed;image=https://cdn4.iconfinder.com/data/icons/logos-3/504/php-128.png;strokeColor=#A8A8A8;" vertex="1" parent="1">
          <mxGeometry x="140" y="920" width="100" height="100" as="geometry" />
        </mxCell>
        <mxCell id="PC23kkCjxWs9p2A2zOyh-18" value="" style="shape=image;html=1;verticalAlign=top;verticalLabelPosition=bottom;labelBackgroundColor=#ffffff;imageAspect=0;aspect=fixed;image=https://cdn4.iconfinder.com/data/icons/logos-3/504/Java-128.png;strokeColor=#A8A8A8;" vertex="1" parent="1">
          <mxGeometry x="364" y="930" width="100" height="100" as="geometry" />
        </mxCell>
        <mxCell id="PC23kkCjxWs9p2A2zOyh-19" value="" style="shape=image;html=1;verticalAlign=top;verticalLabelPosition=bottom;labelBackgroundColor=#ffffff;imageAspect=0;aspect=fixed;image=https://cdn4.iconfinder.com/data/icons/logos-3/426/mysql-128.png;strokeColor=#A8A8A8;" vertex="1" parent="1">
          <mxGeometry x="720" y="1079" width="90" height="90" as="geometry" />
        </mxCell>
        <mxCell id="PC23kkCjxWs9p2A2zOyh-22" value="" style="shape=image;html=1;verticalAlign=top;verticalLabelPosition=bottom;labelBackgroundColor=#ffffff;imageAspect=0;aspect=fixed;image=https://cdn4.iconfinder.com/data/icons/logos-3/504/php-128.png;strokeColor=#A8A8A8;" vertex="1" parent="1">
          <mxGeometry x="705" y="804" width="100" height="100" as="geometry" />
        </mxCell>
        <mxCell id="PC23kkCjxWs9p2A2zOyh-27" value="Passport Application" style="text;html=1;align=center;verticalAlign=middle;resizable=0;points=[];autosize=1;" vertex="1" parent="1">
          <mxGeometry x="690" y="910" width="130" height="20" as="geometry" />
        </mxCell>
        <mxCell id="PC23kkCjxWs9p2A2zOyh-28" value="MySQL Database" style="text;html=1;align=center;verticalAlign=middle;resizable=0;points=[];autosize=1;" vertex="1" parent="1">
          <mxGeometry x="700" y="1180" width="120" height="20" as="geometry" />
        </mxCell>
        <mxCell id="PC23kkCjxWs9p2A2zOyh-29" value="FR Application" style="text;html=1;align=center;verticalAlign=middle;resizable=0;points=[];autosize=1;" vertex="1" parent="1">
          <mxGeometry x="140" y="1040" width="100" height="20" as="geometry" />
        </mxCell>
        <mxCell id="PC23kkCjxWs9p2A2zOyh-30" value="MMA API" style="text;html=1;align=center;verticalAlign=middle;resizable=0;points=[];autosize=1;" vertex="1" parent="1">
          <mxGeometry x="385" y="1040" width="70" height="20" as="geometry" />
        </mxCell>
        <mxCell id="PC23kkCjxWs9p2A2zOyh-31" value="Zyntal Firewall" style="text;html=1;align=center;verticalAlign=middle;resizable=0;points=[];autosize=1;" vertex="1" parent="1">
          <mxGeometry x="472" y="510" width="90" height="20" as="geometry" />
        </mxCell>
        <mxCell id="PC23kkCjxWs9p2A2zOyh-33" value="Public IP1" style="text;html=1;align=center;verticalAlign=middle;resizable=0;points=[];autosize=1;" vertex="1" parent="1">
          <mxGeometry x="600" y="420" width="70" height="20" as="geometry" />
        </mxCell>
        <mxCell id="PC23kkCjxWs9p2A2zOyh-34" value="Public IP1" style="text;html=1;align=center;verticalAlign=middle;resizable=0;points=[];autosize=1;" vertex="1" parent="1">
          <mxGeometry x="600" y="450" width="70" height="20" as="geometry" />
        </mxCell>
      </root>
    </mxGraphModel>
  </diagram>
</mxfile>
